<svg width="180" height="40" viewBox="0 0 180 40" fill="none" xmlns="http://www.w3.org/2000/svg">
<path d="M29.4775 24.0996C29.4775 27.4346 27.6724 30.7605 24.5312 33.2305C19.8295 36.9254 15.4765 39.56 15.4316 39.585L14.7383 40L14.0459 39.585C14.001 39.555 9.643 36.9203 4.94629 33.2305C1.80011 30.7605 0 27.4346 0 24.0996V0H29.4775V24.0996ZM2.69238 24.0947C2.69238 26.5947 4.11855 29.1446 6.60645 31.0996C10.0765 33.8295 13.3123 35.9399 14.7334 36.835C16.1494 35.94 19.3911 33.8296 22.8613 31.0996C25.3491 29.1447 26.7754 26.5896 26.7754 24.0947V2.7002H2.69238V24.0947ZM16.5146 19.1553C16.6243 19.0404 16.7987 18.9997 16.9531 19.0645C17.1126 19.1294 17.2079 19.2746 17.208 19.4395V30.1895C17.208 30.3145 17.1476 30.4396 17.0479 30.5146L15.2783 31.8496C15.2036 31.9045 15.1188 31.9296 15.0342 31.9297C14.9394 31.9297 14.8492 31.895 14.7744 31.835L13.6924 30.9502C13.5976 30.8752 13.543 30.7598 13.543 30.6348V21.0693C13.5432 20.9046 13.6376 20.7593 13.792 20.6943C14.4999 20.3944 15.981 19.6902 16.5146 19.1553ZM10.9229 21.5205C11.0425 21.4805 11.1824 21.5002 11.2871 21.5752H11.292C11.3967 21.6502 11.4619 21.7753 11.4619 21.9053V29.3506C11.4618 29.5004 11.3766 29.64 11.2471 29.71L11.2324 29.7197L11.0527 29.7598L10.8184 29.6855L7.97168 27.7148C7.86199 27.6348 7.79688 27.5099 7.79688 27.3799V22.8447C7.79706 22.6649 7.90679 22.51 8.07617 22.4551L10.9229 21.5205ZM22.1611 13.875C22.2559 13.72 22.4407 13.6453 22.6152 13.6953C22.7895 13.7454 22.9141 13.91 22.9141 14.0898L22.9941 26.7949C22.9941 26.9199 22.9386 27.0353 22.8389 27.1152L19.9375 29.3799C19.8678 29.4348 19.7781 29.4648 19.6885 29.4648L19.5137 29.4248C19.3691 29.3548 19.2793 29.2097 19.2793 29.0547V17.3701C19.2793 17.2501 19.3341 17.1396 19.4238 17.0596C19.4478 17.0411 21.0855 15.6527 22.1611 13.875ZM21.4131 4.68457C21.5328 4.57457 21.6981 4.53961 21.8477 4.59961C21.9971 4.65965 22.1015 4.80488 22.1016 4.96973L22.2461 11.3701C22.251 11.555 22.1363 11.7145 21.9619 11.7695C21.7924 11.8245 21.5978 11.7546 21.498 11.5996L21.084 10.9795C20.6303 11.8495 19.6735 13.4752 18.1328 15.0752C16.8066 16.4552 15.3052 17.5549 13.6748 18.3398C11.6457 19.3197 9.41226 19.8144 7.03418 19.8145H6.99902L6.98926 19.8203C6.77998 19.8203 6.6051 19.6551 6.58496 19.4453C6.57001 19.2304 6.71459 19.0448 6.91895 19.0098C6.94388 19.0048 8.62928 18.7096 10.9229 17.3496C12.294 16.5346 13.6153 15.5147 14.8418 14.3047C16.2279 12.9397 17.4999 11.345 18.6367 9.54004H17.5693C17.4048 9.54004 17.2602 9.44496 17.1953 9.29004C17.1355 9.14004 17.1656 8.96461 17.2803 8.84961L21.4131 4.68457Z" fill="url(#paint0_linear_313_4105)"/>
<path d="M107.14 10C108.482 10 109.646 10.2571 110.632 10.7754C111.618 11.2937 112.382 11.9989 112.93 12.9004C113.477 13.802 113.75 14.8347 113.75 16.002H109.819C109.819 15.4401 109.72 14.9429 109.524 14.5117C109.329 14.0807 109.029 13.7409 108.625 13.4971C108.217 13.2533 107.7 13.1318 107.07 13.1318C106.475 13.1319 105.98 13.2363 105.585 13.4453C105.186 13.6544 104.894 13.9329 104.703 14.2812C104.512 14.6297 104.417 15.0175 104.417 15.4443C104.417 15.7751 104.495 16.0713 104.655 16.3281C104.816 16.5851 105.047 16.8252 105.351 17.043C105.65 17.2606 106.019 17.4691 106.449 17.665C106.879 17.861 107.366 18.049 107.909 18.2275C108.869 18.5672 109.72 18.9378 110.463 19.3428C111.205 19.752 111.822 20.2045 112.321 20.7139L112.339 20.71C112.834 21.2152 113.212 21.7899 113.464 22.4258C113.716 23.066 113.842 23.7721 113.842 24.5996C113.842 25.427 113.689 26.176 113.381 26.8379C113.072 27.4999 112.634 28.0707 112.061 28.541C111.487 29.0156 110.797 29.3768 109.989 29.625C109.181 29.8733 108.278 30 107.283 30C106.35 30 105.446 29.8737 104.582 29.6211C103.718 29.3685 102.945 28.9807 102.263 28.458C101.581 27.9354 101.042 27.2731 100.643 26.4717C100.243 25.6704 100.043 24.7213 100.043 23.624H103.987C103.987 24.2118 104.061 24.7168 104.213 25.1348C104.361 25.5528 104.582 25.8929 104.877 26.1455C105.172 26.398 105.524 26.5806 105.937 26.6982C106.349 26.8158 106.814 26.873 107.331 26.873C107.939 26.873 108.425 26.7721 108.799 26.5762C109.172 26.3802 109.446 26.115 109.624 25.7754C109.802 25.4357 109.89 25.0518 109.89 24.625C109.89 24.2767 109.846 23.9631 109.764 23.6758C109.681 23.3884 109.52 23.1268 109.285 22.8916C109.046 22.6522 108.712 22.4167 108.278 22.1816C107.844 21.9465 107.275 21.6984 106.571 21.4414C105.772 21.1452 105.007 20.8279 104.273 20.4795C103.539 20.1311 102.888 19.7209 102.319 19.2549C101.75 18.7889 101.303 18.24 100.973 17.6172C100.643 16.9944 100.478 16.2454 100.478 15.4268C100.478 14.608 100.638 13.8632 100.964 13.2012C101.29 12.5348 101.75 11.964 102.345 11.4893C102.94 11.0145 103.644 10.6447 104.456 10.3877C105.268 10.1308 106.163 10 107.14 10ZM172.354 10C173.696 10 174.86 10.2571 175.846 10.7754C176.831 11.2936 177.595 11.9991 178.143 12.9004C178.69 13.802 178.964 14.8347 178.964 16.002H175.033C175.033 15.4401 174.934 14.9429 174.738 14.5117C174.543 14.0807 174.243 13.7409 173.839 13.4971C173.431 13.2532 172.914 13.1319 172.284 13.1318C171.689 13.1318 171.194 13.2363 170.799 13.4453C170.399 13.6544 170.108 13.9329 169.917 14.2812C169.726 14.6297 169.63 15.0175 169.63 15.4443C169.63 15.7752 169.709 16.0712 169.869 16.3281C170.03 16.5851 170.26 16.8252 170.564 17.043C170.864 17.2606 171.233 17.4691 171.663 17.665C172.093 17.861 172.579 18.049 173.122 18.2275C174.082 18.5673 174.933 18.9377 175.676 19.3428C176.418 19.7522 177.036 20.2043 177.535 20.7139C178.03 21.2191 178.408 21.7948 178.66 22.4307L178.673 22.4258C178.925 23.066 179.051 23.7721 179.051 24.5996C179.051 25.4269 178.899 26.176 178.591 26.8379C178.282 27.4999 177.843 28.0706 177.27 28.541C176.696 29.0156 176.006 29.3768 175.198 29.625C174.39 29.8733 173.487 30 172.492 30C171.563 30 170.659 29.8737 169.795 29.6211C168.927 29.3685 168.154 28.9805 167.477 28.458C166.795 27.9354 166.256 27.2731 165.856 26.4717C165.457 25.6704 165.257 24.7214 165.257 23.624H169.2C169.2 24.2117 169.274 24.7168 169.426 25.1348C169.573 25.5529 169.8 25.8929 170.091 26.1455C170.382 26.3981 170.738 26.5807 171.15 26.6982C171.563 26.8158 172.028 26.873 172.545 26.873C173.153 26.873 173.639 26.7721 174.013 26.5762C174.386 26.3802 174.66 26.115 174.838 25.7754C175.016 25.4357 175.103 25.0518 175.103 24.625C175.103 24.2767 175.059 23.9631 174.977 23.6758C174.894 23.3884 174.733 23.1311 174.499 22.8916C174.264 22.6521 173.925 22.4168 173.491 22.1816C173.057 21.9465 172.488 21.6983 171.784 21.4414C170.985 21.1453 170.221 20.8278 169.487 20.4795C168.753 20.1311 168.101 19.7209 167.532 19.2549C166.963 18.7889 166.517 18.2399 166.187 17.6172C165.856 16.9944 165.691 16.2455 165.691 15.4268C165.691 14.608 165.852 13.8632 166.178 13.2012C166.503 12.5349 166.964 11.964 167.559 11.4893C168.153 11.0147 168.857 10.6446 169.669 10.3877C170.481 10.1307 171.376 10 172.354 10ZM45.4199 29.7383H41.4766V10.2744H45.4199V29.7383ZM60.4336 22.957V10.2744H64.2734V29.7344H60.3945L53.4502 17.1299V29.7344H49.5977V10.2744H53.4502L60.4336 22.957ZM74.9873 24.7998L78.9004 10.2744H83.2178L77.0322 29.7344H72.9414L66.7832 10.2744H71.0869L74.9873 24.7998ZM97.752 13.4668H89.6475V18.1885H96.54V21.2764H89.6475V26.5547H97.7773V29.7344H85.6992V10.2744H97.752V13.4668ZM130.748 13.4668H125.35V29.7344H121.419V13.4668H116.125V10.2744H130.748V13.4668ZM145.718 13.4668H137.613V18.1885H144.506V21.2764H137.613V26.5547H145.744V29.7344H133.67V10.2744H145.718V13.4668ZM154.254 10.2705C155.466 10.2705 156.569 10.4749 157.567 10.8799C158.566 11.2892 159.426 11.8683 160.151 12.626V12.6221C160.877 13.3799 161.433 14.2949 161.824 15.375C162.215 16.455 162.41 17.6701 162.41 19.0244V20.9883C162.41 22.3341 162.215 23.5458 161.824 24.626C161.433 25.7016 160.877 26.6202 160.151 27.3779C159.426 28.1357 158.562 28.72 157.559 29.125C156.555 29.5299 155.439 29.7343 154.215 29.7344H148.694V10.2705H154.254ZM152.643 26.5596H154.215C155.209 26.5595 156.017 26.3542 156.634 25.9492C157.255 25.5398 157.707 24.9256 158.002 24.1025C158.293 23.2751 158.44 22.2386 158.44 20.9932L158.437 20.9971V19.0068C158.437 18.0618 158.354 17.2427 158.197 16.5459C158.041 15.8492 157.789 15.2742 157.446 14.8213C157.103 14.3684 156.669 14.0288 156.139 13.8066C155.613 13.5845 154.983 13.4717 154.254 13.4717H152.643V26.5596Z" fill="url(#paint1_linear_313_4105)"/>
<defs>
<linearGradient id="paint0_linear_313_4105" x1="-1.56483e-07" y1="20" x2="151.5" y2="20" gradientUnits="userSpaceOnUse">
<stop stop-color="#00A14A"/>
<stop offset="1" stop-color="#007737"/>
</linearGradient>
<linearGradient id="paint1_linear_313_4105" x1="-10.3695" y1="20" x2="179.632" y2="20" gradientUnits="userSpaceOnUse">
<stop stop-color="#00A14A"/>
<stop offset="1" stop-color="#007737"/>
</linearGradient>
</defs>
</svg>
