<svg width="180" height="40" viewBox="0 0 180 40" fill="none" xmlns="http://www.w3.org/2000/svg">
<path d="M29.4775 24.0996C29.4775 27.4346 27.6724 30.7605 24.5312 33.2305C19.8295 36.9254 15.4765 39.56 15.4316 39.585L14.7383 40L14.0459 39.585C14.001 39.555 9.643 36.9203 4.94629 33.2305C1.80011 30.7605 0 27.4346 0 24.0996V0H29.4775V24.0996ZM2.69238 24.0947C2.69238 26.5947 4.11855 29.1446 6.60645 31.0996C10.0765 33.8295 13.3123 35.9399 14.7334 36.835C16.1494 35.94 19.3911 33.8296 22.8613 31.0996C25.3491 29.1447 26.7754 26.5896 26.7754 24.0947V2.7002H2.69238V24.0947ZM16.5146 19.1553C16.6243 19.0404 16.7987 18.9997 16.9531 19.0645C17.1126 19.1294 17.2079 19.2746 17.208 19.4395V30.1895C17.208 30.3145 17.1476 30.4396 17.0479 30.5146L15.2783 31.8496C15.2036 31.9045 15.1188 31.9296 15.0342 31.9297C14.9394 31.9297 14.8492 31.895 14.7744 31.835L13.6924 30.9502C13.5976 30.8752 13.543 30.7598 13.543 30.6348V21.0693C13.5432 20.9046 13.6376 20.7593 13.792 20.6943C14.4999 20.3944 15.981 19.6902 16.5146 19.1553ZM10.9229 21.5205C11.0425 21.4805 11.1824 21.5002 11.2871 21.5752H11.292C11.3967 21.6502 11.4619 21.7753 11.4619 21.9053V29.3506C11.4618 29.5004 11.3766 29.64 11.2471 29.71L11.2324 29.7197L11.0527 29.7598L10.8184 29.6855L7.97168 27.7148C7.86199 27.6348 7.79688 27.5099 7.79688 27.3799V22.8447C7.79706 22.6649 7.90679 22.51 8.07617 22.4551L10.9229 21.5205ZM22.1611 13.875C22.2559 13.72 22.4407 13.6453 22.6152 13.6953C22.7895 13.7454 22.9141 13.91 22.9141 14.0898L22.9941 26.7949C22.9941 26.9199 22.9386 27.0353 22.8389 27.1152L19.9375 29.3799C19.8678 29.4348 19.7781 29.4648 19.6885 29.4648L19.5137 29.4248C19.3691 29.3548 19.2793 29.2097 19.2793 29.0547V17.3701C19.2793 17.2501 19.3341 17.1396 19.4238 17.0596C19.4478 17.0411 21.0855 15.6527 22.1611 13.875ZM21.4131 4.68457C21.5328 4.57457 21.6981 4.53961 21.8477 4.59961C21.9971 4.65965 22.1015 4.80488 22.1016 4.96973L22.2461 11.3701C22.251 11.555 22.1363 11.7145 21.9619 11.7695C21.7924 11.8245 21.5978 11.7546 21.498 11.5996L21.084 10.9795C20.6303 11.8495 19.6735 13.4752 18.1328 15.0752C16.8066 16.4552 15.3052 17.5549 13.6748 18.3398C11.6457 19.3197 9.41226 19.8144 7.03418 19.8145H6.99902L6.98926 19.8203C6.77998 19.8203 6.6051 19.6551 6.58496 19.4453C6.57001 19.2304 6.71459 19.0448 6.91895 19.0098C6.94388 19.0048 8.62928 18.7096 10.9229 17.3496C12.294 16.5346 13.6153 15.5147 14.8418 14.3047C16.2279 12.9397 17.4999 11.345 18.6367 9.54004H17.5693C17.4048 9.54004 17.2602 9.44496 17.1953 9.29004C17.1355 9.14004 17.1656 8.96461 17.2803 8.84961L21.4131 4.68457Z" fill="white"/>
<path d="M107.141 10C108.483 10 109.647 10.2571 110.633 10.7754C111.619 11.2937 112.383 11.9989 112.931 12.9004C113.478 13.802 113.751 14.8347 113.751 16.002H109.82C109.82 15.4401 109.721 14.9429 109.525 14.5117C109.33 14.0807 109.03 13.7409 108.626 13.4971C108.218 13.2533 107.701 13.1318 107.071 13.1318C106.476 13.1319 105.981 13.2363 105.586 13.4453C105.186 13.6544 104.895 13.9329 104.704 14.2812C104.513 14.6297 104.418 15.0175 104.418 15.4443C104.418 15.7751 104.496 16.0713 104.656 16.3281C104.817 16.5851 105.048 16.8252 105.352 17.043C105.651 17.2606 106.02 17.4691 106.45 17.665C106.88 17.861 107.367 18.049 107.91 18.2275C108.87 18.5672 109.721 18.9378 110.464 19.3428C111.206 19.752 111.823 20.2045 112.322 20.7139L112.34 20.71C112.835 21.2152 113.213 21.7899 113.465 22.4258C113.717 23.066 113.843 23.7721 113.843 24.5996C113.843 25.427 113.69 26.176 113.382 26.8379C113.073 27.4999 112.635 28.0707 112.062 28.541C111.488 29.0156 110.798 29.3768 109.99 29.625C109.182 29.8733 108.279 30 107.284 30C106.35 30 105.447 29.8737 104.583 29.6211C103.719 29.3685 102.946 28.9807 102.264 28.458C101.582 27.9354 101.043 27.2731 100.644 26.4717C100.244 25.6704 100.044 24.7213 100.044 23.624H103.988C103.988 24.2118 104.062 24.7168 104.214 25.1348C104.362 25.5528 104.583 25.8929 104.878 26.1455C105.173 26.398 105.525 26.5806 105.938 26.6982C106.35 26.8158 106.815 26.873 107.332 26.873C107.94 26.873 108.426 26.7721 108.8 26.5762C109.173 26.3802 109.447 26.115 109.625 25.7754C109.803 25.4357 109.891 25.0518 109.891 24.625C109.891 24.2767 109.847 23.9631 109.765 23.6758C109.682 23.3884 109.521 23.1268 109.286 22.8916C109.047 22.6522 108.713 22.4167 108.279 22.1816C107.845 21.9465 107.276 21.6984 106.572 21.4414C105.773 21.1452 105.008 20.8279 104.274 20.4795C103.54 20.1311 102.889 19.7209 102.32 19.2549C101.751 18.7889 101.304 18.24 100.974 17.6172C100.644 16.9944 100.479 16.2454 100.479 15.4268C100.479 14.608 100.639 13.8632 100.965 13.2012C101.291 12.5348 101.751 11.964 102.346 11.4893C102.941 11.0145 103.645 10.6447 104.457 10.3877C105.269 10.1308 106.164 10 107.141 10ZM172.354 10C173.697 10 174.861 10.2571 175.847 10.7754C176.832 11.2936 177.596 11.9991 178.144 12.9004C178.691 13.802 178.965 14.8347 178.965 16.002H175.034C175.034 15.4401 174.935 14.9429 174.739 14.5117C174.544 14.0807 174.244 13.7409 173.84 13.4971C173.432 13.2532 172.915 13.1319 172.285 13.1318C171.69 13.1318 171.195 13.2363 170.8 13.4453C170.4 13.6544 170.109 13.9329 169.918 14.2812C169.727 14.6297 169.631 15.0175 169.631 15.4443C169.631 15.7752 169.71 16.0712 169.87 16.3281C170.031 16.5851 170.261 16.8252 170.565 17.043C170.865 17.2606 171.234 17.4691 171.664 17.665C172.094 17.861 172.58 18.049 173.123 18.2275C174.083 18.5673 174.934 18.9377 175.677 19.3428C176.419 19.7522 177.037 20.2043 177.536 20.7139C178.031 21.2191 178.409 21.7948 178.661 22.4307L178.674 22.4258C178.926 23.066 179.052 23.7721 179.052 24.5996C179.052 25.4269 178.9 26.176 178.592 26.8379C178.283 27.4999 177.844 28.0706 177.271 28.541C176.697 29.0156 176.007 29.3768 175.199 29.625C174.391 29.8733 173.488 30 172.493 30C171.564 30 170.66 29.8737 169.796 29.6211C168.928 29.3685 168.155 28.9805 167.478 28.458C166.796 27.9354 166.257 27.2731 165.857 26.4717C165.458 25.6704 165.258 24.7214 165.258 23.624H169.201C169.201 24.2117 169.275 24.7168 169.427 25.1348C169.574 25.5529 169.801 25.8929 170.092 26.1455C170.383 26.3981 170.739 26.5807 171.151 26.6982C171.564 26.8158 172.029 26.873 172.546 26.873C173.154 26.873 173.64 26.7721 174.014 26.5762C174.387 26.3802 174.661 26.115 174.839 25.7754C175.017 25.4357 175.104 25.0518 175.104 24.625C175.103 24.2767 175.06 23.9631 174.978 23.6758C174.895 23.3884 174.734 23.1311 174.5 22.8916C174.265 22.6521 173.926 22.4168 173.492 22.1816C173.058 21.9465 172.489 21.6983 171.785 21.4414C170.986 21.1453 170.222 20.8278 169.488 20.4795C168.754 20.1311 168.102 19.7209 167.533 19.2549C166.964 18.7889 166.518 18.2399 166.188 17.6172C165.857 16.9944 165.692 16.2455 165.692 15.4268C165.692 14.608 165.853 13.8632 166.179 13.2012C166.504 12.5349 166.965 11.964 167.56 11.4893C168.154 11.0147 168.858 10.6446 169.67 10.3877C170.482 10.1307 171.377 10 172.354 10ZM45.4209 29.7383H41.4775V10.2744H45.4209V29.7383ZM60.4346 22.957V10.2744H64.2744V29.7344H60.3955L53.4512 17.1299V29.7344H49.5986V10.2744H53.4512L60.4346 22.957ZM74.9883 24.7998L78.9014 10.2744H83.2188L77.0332 29.7344H72.9424L66.7842 10.2744H71.0879L74.9883 24.7998ZM97.7529 13.4668H89.6484V18.1885H96.541V21.2764H89.6484V26.5547H97.7783V29.7344H85.7002V10.2744H97.7529V13.4668ZM130.749 13.4668H125.351V29.7344H121.42V13.4668H116.126V10.2744H130.749V13.4668ZM145.719 13.4668H137.614V18.1885H144.507V21.2764H137.614V26.5547H145.745V29.7344H133.671V10.2744H145.719V13.4668ZM154.255 10.2705C155.466 10.2705 156.57 10.4749 157.568 10.8799C158.567 11.2892 159.427 11.8683 160.152 12.626V12.6221C160.878 13.3799 161.434 14.2949 161.825 15.375C162.216 16.455 162.411 17.6701 162.411 19.0244V20.9883C162.411 22.3341 162.216 23.5458 161.825 24.626C161.434 25.7016 160.878 26.6202 160.152 27.3779C159.427 28.1357 158.563 28.72 157.56 29.125C156.556 29.5299 155.44 29.7343 154.216 29.7344H148.695V10.2705H154.255ZM152.644 26.5596H154.216C155.21 26.5595 156.018 26.3542 156.635 25.9492C157.256 25.5398 157.708 24.9256 158.003 24.1025C158.294 23.2751 158.441 22.2386 158.441 20.9932L158.438 20.9971V19.0068C158.437 18.0618 158.355 17.2427 158.198 16.5459C158.042 15.8492 157.79 15.2742 157.447 14.8213C157.104 14.3684 156.669 14.0288 156.14 13.8066C155.614 13.5845 154.984 13.4717 154.255 13.4717H152.644V26.5596Z" fill="white"/>
</svg>
