<svg width="30" height="40" viewBox="0 0 30 40" fill="none" xmlns="http://www.w3.org/2000/svg">
<path d="M29.4775 24.0996C29.4775 27.4346 27.6724 30.7605 24.5312 33.2305C19.8295 36.9254 15.4765 39.56 15.4316 39.585L14.7383 40L14.0459 39.585C14.001 39.555 9.643 36.9203 4.94629 33.2305C1.80011 30.7605 0 27.4346 0 24.0996V0H29.4775V24.0996ZM2.69238 24.0947C2.69238 26.5947 4.11855 29.1446 6.60645 31.0996C10.0765 33.8295 13.3123 35.9399 14.7334 36.835C16.1494 35.94 19.3911 33.8296 22.8613 31.0996C25.3491 29.1447 26.7754 26.5896 26.7754 24.0947V2.7002H2.69238V24.0947ZM16.5146 19.1553C16.6243 19.0404 16.7987 18.9997 16.9531 19.0645C17.1126 19.1294 17.2079 19.2746 17.208 19.4395V30.1895C17.208 30.3145 17.1476 30.4396 17.0479 30.5146L15.2783 31.8496C15.2036 31.9045 15.1188 31.9296 15.0342 31.9297C14.9394 31.9297 14.8492 31.895 14.7744 31.835L13.6924 30.9502C13.5976 30.8752 13.543 30.7598 13.543 30.6348V21.0693C13.5432 20.9046 13.6376 20.7593 13.792 20.6943C14.4999 20.3944 15.981 19.6902 16.5146 19.1553ZM10.9229 21.5205C11.0425 21.4805 11.1824 21.5002 11.2871 21.5752H11.292C11.3967 21.6502 11.4619 21.7753 11.4619 21.9053V29.3506C11.4618 29.5004 11.3766 29.64 11.2471 29.71L11.2324 29.7197L11.0527 29.7598L10.8184 29.6855L7.97168 27.7148C7.86199 27.6348 7.79688 27.5099 7.79688 27.3799V22.8447C7.79706 22.6649 7.90679 22.51 8.07617 22.4551L10.9229 21.5205ZM22.1611 13.875C22.2559 13.72 22.4407 13.6453 22.6152 13.6953C22.7895 13.7454 22.9141 13.91 22.9141 14.0898L22.9941 26.7949C22.9941 26.9199 22.9386 27.0353 22.8389 27.1152L19.9375 29.3799C19.8678 29.4348 19.7781 29.4648 19.6885 29.4648L19.5137 29.4248C19.3691 29.3548 19.2793 29.2097 19.2793 29.0547V17.3701C19.2793 17.2501 19.3341 17.1396 19.4238 17.0596C19.4478 17.0411 21.0855 15.6527 22.1611 13.875ZM21.4131 4.68457C21.5328 4.57457 21.6981 4.53961 21.8477 4.59961C21.9971 4.65965 22.1015 4.80488 22.1016 4.96973L22.2461 11.3701C22.251 11.555 22.1363 11.7145 21.9619 11.7695C21.7924 11.8245 21.5978 11.7546 21.498 11.5996L21.084 10.9795C20.6303 11.8495 19.6735 13.4752 18.1328 15.0752C16.8066 16.4552 15.3052 17.5549 13.6748 18.3398C11.6457 19.3197 9.41226 19.8144 7.03418 19.8145H6.99902L6.98926 19.8203C6.77998 19.8203 6.6051 19.6551 6.58496 19.4453C6.57001 19.2304 6.71459 19.0448 6.91895 19.0098C6.94388 19.0048 8.62928 18.7096 10.9229 17.3496C12.294 16.5346 13.6153 15.5147 14.8418 14.3047C16.2279 12.9397 17.4999 11.345 18.6367 9.54004H17.5693C17.4048 9.54004 17.2602 9.44496 17.1953 9.29004C17.1355 9.14004 17.1656 8.96461 17.2803 8.84961L21.4131 4.68457Z" fill="url(#paint0_linear_490_4225)"/>
<defs>
<linearGradient id="paint0_linear_490_4225" x1="-1.56483e-07" y1="20" x2="29" y2="20" gradientUnits="userSpaceOnUse">
<stop stop-color="#00A14A"/>
<stop offset="1" stop-color="#007737"/>
</linearGradient>
</defs>
</svg>
